<svg width="182" height="50" viewBox="0 0 182 50" fill="none" xmlns="http://www.w3.org/2000/svg">
<rect width="182" height="50" rx="6" fill="#1877F2"/>
<path d="M50.844 21.64V24.44H54.604V26.216H50.844V29.176H55.084V31H48.604V19.816H55.084V21.64H50.844ZM56.6636 26.536C56.6636 25.64 56.8396 24.8453 57.1916 24.152C57.5543 23.4587 58.045 22.9253 58.6636 22.552C59.2823 22.1787 59.9703 21.992 60.7276 21.992C61.3036 21.992 61.853 22.12 62.3756 22.376C62.8983 22.6213 63.3143 22.952 63.6236 23.368V19.16H65.8956V31H63.6236V29.688C63.3463 30.1253 62.957 30.4773 62.4556 30.744C61.9543 31.0107 61.373 31.144 60.7116 31.144C59.965 31.144 59.2823 30.952 58.6636 30.568C58.045 30.184 57.5543 29.6453 57.1916 28.952C56.8396 28.248 56.6636 27.4427 56.6636 26.536ZM63.6396 26.568C63.6396 26.024 63.533 25.56 63.3196 25.176C63.1063 24.7813 62.8183 24.4827 62.4556 24.28C62.093 24.0667 61.7036 23.96 61.2876 23.96C60.8716 23.96 60.4876 24.0613 60.1356 24.264C59.7836 24.4667 59.4956 24.7653 59.2716 25.16C59.0583 25.544 58.9516 26.0027 58.9516 26.536C58.9516 27.0693 59.0583 27.5387 59.2716 27.944C59.4956 28.3387 59.7836 28.6427 60.1356 28.856C60.4983 29.0693 60.8823 29.176 61.2876 29.176C61.7036 29.176 62.093 29.0747 62.4556 28.872C62.8183 28.6587 63.1063 28.36 63.3196 27.976C63.533 27.5813 63.6396 27.112 63.6396 26.568ZM69.3394 21.08C68.9447 21.08 68.614 20.9573 68.3474 20.712C68.0914 20.456 67.9634 20.1413 67.9634 19.768C67.9634 19.3947 68.0914 19.0853 68.3474 18.84C68.614 18.584 68.9447 18.456 69.3394 18.456C69.734 18.456 70.0594 18.584 70.3154 18.84C70.582 19.0853 70.7154 19.3947 70.7154 19.768C70.7154 20.1413 70.582 20.456 70.3154 20.712C70.0594 20.9573 69.734 21.08 69.3394 21.08ZM70.4434 22.136V31H68.2034V22.136H70.4434ZM75.3845 23.976V28.264C75.3845 28.5627 75.4538 28.7813 75.5925 28.92C75.7418 29.048 75.9872 29.112 76.3285 29.112H77.3685V31H75.9605C74.0725 31 73.1285 30.0827 73.1285 28.248V23.976H72.0725V22.136H73.1285V19.944H75.3845V22.136H77.3685V23.976H75.3845ZM85.2721 23.416C85.5601 23.0107 85.9548 22.6747 86.4561 22.408C86.9681 22.1307 87.5495 21.992 88.2001 21.992C88.9575 21.992 89.6401 22.1787 90.2481 22.552C90.8668 22.9253 91.3521 23.4587 91.7041 24.152C92.0668 24.8347 92.2481 25.6293 92.2481 26.536C92.2481 27.4427 92.0668 28.248 91.7041 28.952C91.3521 29.6453 90.8668 30.184 90.2481 30.568C89.6401 30.952 88.9575 31.144 88.2001 31.144C87.5495 31.144 86.9735 31.0107 86.4721 30.744C85.9815 30.4773 85.5815 30.1413 85.2721 29.736V35.224H83.0321V22.136H85.2721V23.416ZM89.9601 26.536C89.9601 26.0027 89.8481 25.544 89.6241 25.16C89.4108 24.7653 89.1228 24.4667 88.7601 24.264C88.4081 24.0613 88.0241 23.96 87.6081 23.96C87.2028 23.96 86.8188 24.0667 86.4561 24.28C86.1041 24.4827 85.8161 24.7813 85.5921 25.176C85.3788 25.5707 85.2721 26.0347 85.2721 26.568C85.2721 27.1013 85.3788 27.5653 85.5921 27.96C85.8161 28.3547 86.1041 28.6587 86.4561 28.872C86.8188 29.0747 87.2028 29.176 87.6081 29.176C88.0241 29.176 88.4081 29.0693 88.7601 28.856C89.1228 28.6427 89.4108 28.3387 89.6241 27.944C89.8481 27.5493 89.9601 27.08 89.9601 26.536ZM96.2359 23.512C96.5239 23.0427 96.8972 22.6747 97.3559 22.408C97.8252 22.1413 98.3585 22.008 98.9559 22.008V24.36H98.3639C97.6599 24.36 97.1265 24.5253 96.7639 24.856C96.4119 25.1867 96.2359 25.7627 96.2359 26.584V31H93.9959V22.136H96.2359V23.512ZM104.521 31.144C103.667 31.144 102.899 30.9573 102.217 30.584C101.534 30.2 100.995 29.6613 100.601 28.968C100.217 28.2747 100.025 27.4747 100.025 26.568C100.025 25.6613 100.222 24.8613 100.617 24.168C101.022 23.4747 101.571 22.9413 102.265 22.568C102.958 22.184 103.731 21.992 104.585 21.992C105.438 21.992 106.211 22.184 106.905 22.568C107.598 22.9413 108.142 23.4747 108.537 24.168C108.942 24.8613 109.145 25.6613 109.145 26.568C109.145 27.4747 108.937 28.2747 108.521 28.968C108.115 29.6613 107.561 30.2 106.857 30.584C106.163 30.9573 105.385 31.144 104.521 31.144ZM104.521 29.192C104.926 29.192 105.305 29.096 105.657 28.904C106.019 28.7013 106.307 28.4027 106.521 28.008C106.734 27.6133 106.841 27.1333 106.841 26.568C106.841 25.7253 106.617 25.08 106.169 24.632C105.731 24.1733 105.193 23.944 104.553 23.944C103.913 23.944 103.374 24.1733 102.937 24.632C102.51 25.08 102.297 25.7253 102.297 26.568C102.297 27.4107 102.505 28.0613 102.921 28.52C103.347 28.968 103.881 29.192 104.521 29.192ZM114.972 23.976H113.42V31H111.148V23.976H110.14V22.136H111.148V21.688C111.148 20.6 111.457 19.8 112.076 19.288C112.694 18.776 113.628 18.536 114.876 18.568V20.456C114.332 20.4453 113.953 20.536 113.74 20.728C113.526 20.92 113.42 21.2667 113.42 21.768V22.136H114.972V23.976ZM117.679 21.08C117.285 21.08 116.954 20.9573 116.687 20.712C116.431 20.456 116.303 20.1413 116.303 19.768C116.303 19.3947 116.431 19.0853 116.687 18.84C116.954 18.584 117.285 18.456 117.679 18.456C118.074 18.456 118.399 18.584 118.655 18.84C118.922 19.0853 119.055 19.3947 119.055 19.768C119.055 20.1413 118.922 20.456 118.655 20.712C118.399 20.9573 118.074 21.08 117.679 21.08ZM118.783 22.136V31H116.543V22.136H118.783ZM123.356 19.16V31H121.116V19.16H123.356ZM133.93 26.376C133.93 26.696 133.908 26.984 133.866 27.24H127.386C127.439 27.88 127.663 28.3813 128.058 28.744C128.452 29.1067 128.938 29.288 129.514 29.288C130.346 29.288 130.938 28.9307 131.29 28.216H133.706C133.45 29.0693 132.959 29.7733 132.234 30.328C131.508 30.872 130.618 31.144 129.562 31.144C128.708 31.144 127.94 30.9573 127.258 30.584C126.586 30.2 126.058 29.6613 125.674 28.968C125.3 28.2747 125.114 27.4747 125.114 26.568C125.114 25.6507 125.3 24.8453 125.674 24.152C126.047 23.4587 126.57 22.9253 127.242 22.552C127.914 22.1787 128.687 21.992 129.562 21.992C130.404 21.992 131.156 22.1733 131.818 22.536C132.49 22.8987 133.007 23.416 133.37 24.088C133.743 24.7493 133.93 25.512 133.93 26.376ZM131.61 25.736C131.599 25.16 131.391 24.7013 130.986 24.36C130.58 24.008 130.084 23.832 129.498 23.832C128.943 23.832 128.474 24.0027 128.09 24.344C127.716 24.6747 127.487 25.1387 127.402 25.736H131.61Z" fill="white"/>
</svg>
