<svg width="182" height="50" viewBox="0 0 182 50" fill="none" xmlns="http://www.w3.org/2000/svg">
<rect width="182" height="50" rx="6" fill="#1877F2"/>
<path d="M73.032 19.832L69.912 31H67.272L65.176 23.048L62.984 31L60.36 31.016L57.352 19.832H59.752L61.72 28.504L63.992 19.832H66.488L68.632 28.456L70.616 19.832H73.032ZM82.8546 26.376C82.8546 26.696 82.8333 26.984 82.7906 27.24H76.3106C76.364 27.88 76.588 28.3813 76.9826 28.744C77.3773 29.1067 77.8626 29.288 78.4386 29.288C79.2706 29.288 79.8626 28.9307 80.2146 28.216H82.6306C82.3746 29.0693 81.884 29.7733 81.1586 30.328C80.4333 30.872 79.5426 31.144 78.4866 31.144C77.6333 31.144 76.8653 30.9573 76.1826 30.584C75.5106 30.2 74.9826 29.6613 74.5986 28.968C74.2253 28.2747 74.0386 27.4747 74.0386 26.568C74.0386 25.6507 74.2253 24.8453 74.5986 24.152C74.972 23.4587 75.4946 22.9253 76.1666 22.552C76.8386 22.1787 77.612 21.992 78.4866 21.992C79.3293 21.992 80.0813 22.1733 80.7426 22.536C81.4146 22.8987 81.932 23.416 82.2946 24.088C82.668 24.7493 82.8546 25.512 82.8546 26.376ZM80.5346 25.736C80.524 25.16 80.316 24.7013 79.9106 24.36C79.5053 24.008 79.0093 23.832 78.4226 23.832C77.868 23.832 77.3986 24.0027 77.0146 24.344C76.6413 24.6747 76.412 25.1387 76.3266 25.736H80.5346ZM86.8496 23.432C87.1376 23.0053 87.5323 22.6587 88.0336 22.392C88.5456 22.1253 89.127 21.992 89.7776 21.992C90.535 21.992 91.2176 22.1787 91.8256 22.552C92.4443 22.9253 92.9296 23.4587 93.2816 24.152C93.6443 24.8347 93.8256 25.6293 93.8256 26.536C93.8256 27.4427 93.6443 28.248 93.2816 28.952C92.9296 29.6453 92.4443 30.184 91.8256 30.568C91.2176 30.952 90.535 31.144 89.7776 31.144C89.1163 31.144 88.535 31.016 88.0336 30.76C87.543 30.4933 87.1483 30.152 86.8496 29.736V31H84.6096V19.16H86.8496V23.432ZM91.5376 26.536C91.5376 26.0027 91.4256 25.544 91.2016 25.16C90.9883 24.7653 90.7003 24.4667 90.3376 24.264C89.9856 24.0613 89.6016 23.96 89.1856 23.96C88.7803 23.96 88.3963 24.0667 88.0336 24.28C87.6816 24.4827 87.3936 24.7813 87.1696 25.176C86.9563 25.5707 86.8496 26.0347 86.8496 26.568C86.8496 27.1013 86.9563 27.5653 87.1696 27.96C87.3936 28.3547 87.6816 28.6587 88.0336 28.872C88.3963 29.0747 88.7803 29.176 89.1856 29.176C89.6016 29.176 89.9856 29.0693 90.3376 28.856C90.7003 28.6427 90.9883 28.3387 91.2016 27.944C91.4256 27.5493 91.5376 27.08 91.5376 26.536ZM98.9654 31.144C98.24 31.144 97.5894 31.016 97.0134 30.76C96.4374 30.4933 95.9787 30.136 95.6374 29.688C95.3067 29.24 95.1254 28.744 95.0934 28.2H97.3494C97.392 28.5413 97.5574 28.824 97.8454 29.048C98.144 29.272 98.512 29.384 98.9494 29.384C99.376 29.384 99.7067 29.2987 99.9414 29.128C100.187 28.9573 100.309 28.7387 100.309 28.472C100.309 28.184 100.16 27.9707 99.8614 27.832C99.5734 27.6827 99.1094 27.5227 98.4694 27.352C97.808 27.192 97.264 27.0267 96.8374 26.856C96.4214 26.6853 96.0587 26.424 95.7494 26.072C95.4507 25.72 95.3014 25.2453 95.3014 24.648C95.3014 24.1573 95.44 23.7093 95.7174 23.304C96.0054 22.8987 96.4107 22.5787 96.9334 22.344C97.4667 22.1093 98.0907 21.992 98.8054 21.992C99.8614 21.992 100.704 22.2587 101.333 22.792C101.963 23.3147 102.309 24.024 102.373 24.92H100.229C100.197 24.568 100.048 24.2907 99.7814 24.088C99.5254 23.8747 99.1787 23.768 98.7414 23.768C98.336 23.768 98.0214 23.8427 97.7974 23.992C97.584 24.1413 97.4774 24.3493 97.4774 24.616C97.4774 24.9147 97.6267 25.144 97.9254 25.304C98.224 25.4533 98.688 25.608 99.3174 25.768C99.9574 25.928 100.485 26.0933 100.901 26.264C101.317 26.4347 101.675 26.7013 101.973 27.064C102.283 27.416 102.443 27.8853 102.453 28.472C102.453 28.984 102.309 29.4427 102.021 29.848C101.744 30.2533 101.339 30.5733 100.805 30.808C100.283 31.032 99.6694 31.144 98.9654 31.144ZM105.548 21.08C105.153 21.08 104.823 20.9573 104.556 20.712C104.3 20.456 104.172 20.1413 104.172 19.768C104.172 19.3947 104.3 19.0853 104.556 18.84C104.823 18.584 105.153 18.456 105.548 18.456C105.943 18.456 106.268 18.584 106.524 18.84C106.791 19.0853 106.924 19.3947 106.924 19.768C106.924 20.1413 106.791 20.456 106.524 20.712C106.268 20.9573 105.943 21.08 105.548 21.08ZM106.652 22.136V31H104.412V22.136H106.652ZM111.593 23.976V28.264C111.593 28.5627 111.663 28.7813 111.801 28.92C111.951 29.048 112.196 29.112 112.537 29.112H113.577V31H112.169C110.281 31 109.337 30.0827 109.337 28.248V23.976H108.281V22.136H109.337V19.944H111.593V22.136H113.577V23.976H111.593ZM123.548 26.376C123.548 26.696 123.527 26.984 123.484 27.24H117.004C117.058 27.88 117.282 28.3813 117.676 28.744C118.071 29.1067 118.556 29.288 119.132 29.288C119.964 29.288 120.556 28.9307 120.908 28.216H123.324C123.068 29.0693 122.578 29.7733 121.852 30.328C121.127 30.872 120.236 31.144 119.18 31.144C118.327 31.144 117.559 30.9573 116.876 30.584C116.204 30.2 115.676 29.6613 115.292 28.968C114.919 28.2747 114.732 27.4747 114.732 26.568C114.732 25.6507 114.919 24.8453 115.292 24.152C115.666 23.4587 116.188 22.9253 116.86 22.552C117.532 22.1787 118.306 21.992 119.18 21.992C120.023 21.992 120.775 22.1733 121.436 22.536C122.108 22.8987 122.626 23.416 122.988 24.088C123.362 24.7493 123.548 25.512 123.548 26.376ZM121.228 25.736C121.218 25.16 121.01 24.7013 120.604 24.36C120.199 24.008 119.703 23.832 119.116 23.832C118.562 23.832 118.092 24.0027 117.708 24.344C117.335 24.6747 117.106 25.1387 117.02 25.736H121.228Z" fill="white"/>
</svg>
